<?xml version="1.0" encoding="iso-8859-1"?>
<!-- Generator: Adobe Illustrator 19.0.0, SVG Export Plug-In . SVG Version: 6.00 Build 0)  -->
<svg version="1.1" id="Capa_1" xmlns="http://www.w3.org/2000/svg" xmlns:xlink="http://www.w3.org/1999/xlink" x="0px" y="0px"
	 viewBox="0 0 512 512" style="enable-background:new 0 0 512 512;" xml:space="preserve">
<g>
	<g>
		<path d="M217,214c-11.046,0-20,8.954-20,20v120c0,11.046,8.954,20,20,20s20-8.954,20-20V234C237,222.954,228.046,214,217,214z"/>
	</g>
</g>
<g>
	<g>
		<path d="M140,294c-11.046,0-20,8.954-20,20v40c0,11.046,8.954,20,20,20s20-8.954,20-20v-40C160,302.954,151.046,294,140,294z"/>
	</g>
</g>
<g>
	<g>
		<path d="M295,294c-11.046,0-20,8.954-20,20v40c0,11.046,8.954,20,20,20c11.046,0,20-8.954,20-20v-40
			C315,302.954,306.046,294,295,294z"/>
	</g>
</g>
<g>
	<g>
		<path d="M372,214c-11.046,0-20,8.954-20,20v120c0,11.046,8.954,20,20,20c11.046,0,20-8.954,20-20V234
			C392,222.954,383.046,214,372,214z"/>
	</g>
</g>
<g>
	<g>
		<path d="M492,68H20C8.954,68,0,76.954,0,88v76c0,11.046,8.954,20,20,20h5v240c0,11.046,8.954,20,20,20h422
			c11.046,0,20-8.954,20-20V184h5c11.046,0,20-8.954,20-20V88C512,76.954,503.046,68,492,68z M447,404H65V184h382V404z M472,144
			c-4.717,0-427.132,0-432,0v-36h432V144z"/>
	</g>
</g>
<g>
</g>
<g>
</g>
<g>
</g>
<g>
</g>
<g>
</g>
<g>
</g>
<g>
</g>
<g>
</g>
<g>
</g>
<g>
</g>
<g>
</g>
<g>
</g>
<g>
</g>
<g>
</g>
<g>
</g>
</svg>
