<?xml version="1.0" encoding="iso-8859-1"?>
<!-- Generator: Adobe Illustrator 19.0.0, SVG Export Plug-In . SVG Version: 6.00 Build 0)  -->
<svg version="1.1" id="Capa_1" xmlns="http://www.w3.org/2000/svg" xmlns:xlink="http://www.w3.org/1999/xlink" x="0px" y="0px"
	 viewBox="0 0 512 512" style="enable-background:new 0 0 512 512;" xml:space="preserve">
<g>
	<g>
		<g>
			<path d="M95.634,260.402c3.731,15.016,10.546,29.092,20.013,41.33c2.057,2.947,3.176,6.447,3.21,10.04v21.336l31.98,19.188
				l31.98-19.199l0.04-28.46c-12.54-16.406-21.406-35.318-25.996-55.451c-0.968-4.992-3.388-9.587-6.955-13.21
				c-8.197-8.146-12.794-19.234-12.763-30.79v-32.5c0.007-6.758,1.581-13.422,4.598-19.469l1.88-3.763
				c1.75-3.505,2.662-7.368,2.665-11.286V91.429c0.018-6.155,0.729-12.289,2.119-18.286h-7.422
				c-29.878,0.034-54.091,24.247-54.125,54.125v40.505c-0.022,5.987-1.402,11.891-4.035,17.268l-1.683,3.371
				c-1.429,2.843-2.164,5.984-2.143,9.165v28.161c0.008,5.457,2.167,10.691,6.009,14.567
				C90.449,245.811,94.146,252.802,95.634,260.402z"/>
			<path d="M192.12,348.839l-24.551,14.739l50.229,27.404l22.188-22.185l-47.403-20.315
				C192.416,348.588,192.294,348.739,192.12,348.839z"/>
			<path d="M174.781,245.554c4.117,17.573,11.915,34.074,22.879,48.411c2.246,3.108,3.464,6.84,3.482,10.674v27.62L256,355.768
				l54.857-23.51v-27.62c0.012-3.792,1.202-7.486,3.406-10.571c10.999-14.364,18.823-30.9,22.955-48.513
				c1.675-8.516,5.832-16.345,11.946-22.504c4.755-4.726,7.422-11.158,7.406-17.862v-32.5c-0.003-3.916-0.914-7.777-2.661-11.281
				l-1.888-3.772c-3.014-6.046-4.587-12.708-4.594-19.464V91.429c-0.04-35.33-28.67-63.96-64-64h-54.857
				c-35.33,0.04-63.96,28.67-64,64v46.741c-0.007,6.758-1.581,13.422-4.598,19.469l-1.879,3.763
				c-1.75,3.505-2.662,7.368-2.665,11.286v32.5c-0.018,6.696,2.643,13.12,7.388,17.843
				C168.94,229.193,173.103,237.03,174.781,245.554z"/>
			<path d="M344.431,363.578l-24.653-14.801c-0.139-0.081-0.239-0.205-0.375-0.289l-47.39,20.31l22.188,22.185L344.431,363.578z"/>
			<polygon points="260.567,411.429 272.644,395.287 256,378.643 239.356,395.287 251.433,411.429 			"/>
			<path d="M362.112,235.96c-3.577,3.626-6.002,8.228-6.973,13.228c-4.599,20.152-13.467,39.084-26.004,55.518l0.009,28.37
				l32.019,19.221l31.981-19.189v-21.336c0.015-3.469,1.057-6.855,2.996-9.732c9.566-12.332,16.456-26.522,20.232-41.665
				c1.49-7.591,5.188-14.573,10.629-20.071c3.839-3.878,5.996-9.111,6.004-14.567v-28.161c0.023-3.154-0.698-6.27-2.103-9.094
				l-1.688-3.366c-2.653-5.398-4.045-11.329-4.071-17.344v-40.505c-0.034-29.878-24.247-54.091-54.125-54.125h-7.422
				c1.39,5.996,2.101,12.13,2.119,18.286v46.741c0.003,3.916,0.914,7.777,2.661,11.281l1.888,3.772
				c3.014,6.046,4.587,12.708,4.594,19.464v32.5C374.889,216.736,370.299,227.816,362.112,235.96z"/>
			<path d="M378.928,362.962l19.662,11.804l15.888-15.888l-13.05-7.812c-0.431-0.256-0.757-0.62-1.16-0.909L378.928,362.962z"/>
			<path d="M296.951,410.313c-3.561,1.942-7.976,1.306-10.843-1.563l-0.399-0.399l-10.247,13.693l18.834,50.226l50.238-87.917
				L296.951,410.313z"/>
			<path d="M110.541,351.085l-13.02,7.793l15.888,15.888l19.662-11.803l-21.343-12.807
				C111.316,350.451,110.982,350.823,110.541,351.085z"/>
			<path d="M489.554,403.813l-58.899-35.252l-15.906,15.906l16.015,9.615c21.961,13.277,35.422,37.034,35.522,62.696v27.794H512
				v-41.143C511.939,427.212,503.433,412.199,489.554,403.813z"/>
			<polygon points="253.195,429.714 232.623,484.571 279.377,484.571 258.805,429.714 			"/>
			<path d="M421.344,409.754l-52.318-31.41l-60.701,106.227H448l0-27.794C448.063,437.49,437.925,419.606,421.344,409.754z"/>
			<path d="M81.228,394.085l16.023-9.619L81.345,368.56l-58.912,35.262C8.56,412.209,0.059,427.218,0,443.429v41.143h45.714v-27.794
				C45.814,431.118,59.271,407.362,81.228,394.085z"/>
			<path d="M90.647,409.759C74.07,419.612,63.936,437.493,64,456.777l0,27.794h139.675l-60.701-106.226L90.647,409.759z"/>
			<path d="M226.292,408.351l-0.399,0.399c-2.868,2.868-7.282,3.504-10.843,1.563l-47.583-25.959l50.238,87.917l18.834-50.226
				L226.292,408.351z"/>
		</g>
	</g>
</g>
<g>
</g>
<g>
</g>
<g>
</g>
<g>
</g>
<g>
</g>
<g>
</g>
<g>
</g>
<g>
</g>
<g>
</g>
<g>
</g>
<g>
</g>
<g>
</g>
<g>
</g>
<g>
</g>
<g>
</g>
</svg>
