<?xml version="1.0" encoding="utf-8"?>
<!-- Generator: Adobe Illustrator 19.0.0, SVG Export Plug-In . SVG Version: 6.00 Build 0)  -->
<svg xmlns="http://www.w3.org/2000/svg" xmlns:xlink="http://www.w3.org/1999/xlink" version="1.1" id="Layer_1" x="0px" y="0px" viewBox="0 2 98 98" style="enable-background:new 0 2 98 98;" xml:space="preserve" width="512" height="512">
<style type="text/css">
	.st0{fill:url(#SVGID_1_);}
</style>
<linearGradient id="SVGID_1_" gradientUnits="userSpaceOnUse" x1="49" y1="6.8499" x2="49" y2="95.1501">
	<stop offset="0" style="stop-color:#00EFD1"/>
	<stop offset="1" style="stop-color:#00ACEA"/>
</linearGradient>
<path class="st0" d="M81,75.9h-3.4V48.2c0-13.2-8.8-24.3-20.9-27.8c0.7-1.3,1.1-2.7,1.1-4.3c0-5.1-4.1-9.2-9.2-9.2  c-5.1,0-9.2,4.1-9.2,9.2c0,1.5,0.4,3,1.1,4.3c-12,3.5-20.9,14.7-20.9,27.8v27.8H17c-1.7,0-3,1.3-3,3s1.3,3,3,3h20.8v2.2  c0,6.1,4.9,11,11,11s11-4.9,11-11v-2.2H81c1.7,0,3-1.3,3-3S82.7,75.9,81,75.9z M45.4,16.1c0-1.7,1.5-3.2,3.2-3.2s3.2,1.5,3.2,3.2  c0,1.5-1.1,2.8-2.5,3.1c-0.2,0-0.5,0-0.7,0c-0.2,0-0.5,0-0.7,0C46.5,18.8,45.4,17.5,45.4,16.1z M25.6,48.2c0-12.3,9.7-22.4,21.9-23  c0.4,0,0.7,0.1,1.1,0.1s0.7,0,1.1-0.1c12.2,0.6,21.9,10.7,21.9,23v27.8h-46V48.2z M53.8,84.2c0,2.8-2.2,5-5,5s-5-2.2-5-5v-2.2h10  V84.2z"/>
</svg>
